/* XPM */
static char * core_xpm[] = {
"16 16 6 1",
" 	s None	c None",
".	c black",
"X	c white",
"o	c #808080",
"r	c #0000ff",
"e	c #000099",
"                ",
"  ........      ",
"  .XXXXX.o.     ",
"  .XXXXX.Xo.    ",
"  .XrrrX.XXo.   ",
"  .XrrrX.....o  ",
"  .XrrrXXXXX.o  ",
"  .XrrrXXXXX.o  ",
"  .XrrrXXXXX.o  ",
"  .XrrrXXXXX.o  ",
"  .XXXXXXXXX.o  ",
"  .XrrrXXXXX.o  ",
"  .XrrrXXXXX.o  ",
"  ...........o  ",
"   ooooooooooo  ",
"                "};
