/* XPM */
static char *dir_close_lnk_xpm[] = {
/* width height num_colors chars_per_pixel */
"    16    16        6            1",
/* colors */
". c none",
"# c #ffe79c",
"a c #c6864a",
"b c #ffc78c",
"c c #000000",
"d c #0000ff",
/* pixels */
"................",
"...###a ........",
"..b#bbba. ......",
".bbbbbbbbbbbbbb.",
"bb#############c",
"b#bbbbbbbdbbbbac",
"b#bbbbbbbddbbbac",
"b#bbbbbbbdddbbac",
"b#bbdddddddddbac",
"b#bbdddddddddbac",
"b#bbbbbbbdddbbac",
"b#bbbbbbbddbbbac",
"b#bbbbbbbdbbbbac",
"b#aaaaaaaaaaaaac",
".ccccccccccccccc",
"................"
};
