/* XPM */
static char *dir_ro_xpm[] = {
/* width height num_colors chars_per_pixel */
"    16    16        7           1",
/* colors */
". c none",
"# c #ffe79c",
"a c #c6864a",
"b c #ffc78c",
"c c #000000",
"d c #0000ff",
"e c #ffffff",
/* pixels */
"................",
"...###a ........",
"..b#bbba. ......",
".bbbbbbbbbbbbbb.",
"bb#############c",
"b#bbbdddddbbbbac",
"b#bbdbbbbbdbbbac",
"b#bdbbbbbdbdbbac",
"b#bdbbbbdbbdbbac",
"b#dbbbbdbbbbdbac",
"b#bdbbdbbbbdbbac",
"b#bdbdbbbbbdbbac",
"b#bbdbbbbbdbbbac",
"b#aaadddddaaaaac",
".ccccccccccccccc",
"................"
};
