/* XPM */
static char * exe_xpm[] = {
"16 16 7 1",
" 	c None",
".	c #DBD1A6",
"+	c #8D8562",
"@	c #70632F",
"#	c #D5CB96",
"$	c #C6B988",
"%	c #A19870",
"..+@@+..        ",
".+####+.        ",
"$@#$%#@$        ",
"$@#%+#@$        ",
".+####+.        ",
"..+@@+..        ",
" ..$$..         ",
"                ",
"                ",
"                ",
"                ",
"                ",
"                ",
"                ",
"                ",
"                "};
