/* XPM */
static char * exe_script_xpm[] = {
"16 16 5 1",
" 	c None",
".	c black",
"X	c blue",
"o	c gray",
"O	c white",
"                ",
" .............  ",
" .XXXXXXXXXXX.o ",
" .XXXXXXXXXXX.o ",
" .............o ",
" .OOOOOOOOOOO.o ",
" .O.........O.o ",
" .OOOOOOOOOOO.o ",
" .O.........O.o ",
" .OOOOOOOOOOO.o ",
" .O.........O.o ",
" .OOOOOOOOOOO.o ",
" .............o ",
"  ooooooooooooo ",
"                ",
"                "};
