/* XPM */
static char * image_xpm[] = {
"16 16 7 1",
" 	s None	c None",
".	c black",
"X	c white",
"o	c #808080",
"z	c #aa0000",
"x	c #00aa00",
"c	c #0000aa",
"                ",
"  ........      ",
"  .XXXXX.o.     ",
"  .XXXXX.Xo.    ",
"  .XXXXX.XXo.   ",
"  .XXXXX.....o  ",
"  .XXXXXXXXX.o  ",
"  .XcccccccX.o  ",
"  .XczxxxzcX.o  ",
"  .XcxxzxxcX.o  ",
"  .XczxxxzcX.o  ",
"  .XcccccccX.o  ",
"  .XXXXXXXXX.o  ",
"  ...........o  ",
"   ooooooooooo  ",
"                "};
