/* XPM */
static char * link_flag_xpm[] = {
"16 16 3 1",
" 	c None",
".	c #AAAAAA",
"+	c #0000FF",
"                ",
"                ",
"                ",
"                ",
"                ",
"                ",
"                ",
"                ",
"                ",
"         .++.   ",
"          .++.  ",
"   .........++. ",
"   .+++++++++++ ",
"   .........++. ",
"          .++.  ",
"         .++.   "};
