/* XPM */
static char * page_word_xpm[] = {
"16 16 13 1",
" 	c None",
".	c #000000",
"+	c #FFFFFF",
"@	c #7A7A7A",
"#	c #57F998",
"$	c #299355",
"%	c #B3F9CF",
"&	c #31B265",
"*	c #D8D6AF",
"=	c #FEFEFE",
"-	c #CECA82",
";	c #E7F3EC",
">	c #FCFCFC",
" .........      ",
" .+++++++..     ",
" .+++++++.@.    ",
" .+++++++.+@.   ",
" .+++++++.....  ",
" .++++++++@@@.@ ",
" .#$$%&$&%&$#.@ ",
" .+$$+%$#++&+.@ ",
" .*#$%+$$+%%+.@ ",
" .*%$#%$$%#+=.@ ",
" .**$$##$##++.@ ",
" .-*#$#+$$%++.@ ",
" .-*%$%+#$;++.@ ",
" .--*$;+%&>++.@ ",
" .............@ ",
"  @@@@@@@@@@@@@ "};
