/* XPM */
static char * page_adobe_xpm[] = {
"16 16 12 1",
" 	c None",
".	c #000000",
"+	c #FFFFFF",
"@	c #7A7A7A",
"#	c #FFC9C9",
"$	c #FFA5A5",
"%	c #FF0000",
"&	c #FF9393",
"*	c #FFFBFB",
"=	c #FEFEFE",
"-	c #FAFAFA",
";	c #F9F9F9",
" .........      ",
" .+++++++..     ",
" .+++++++.@.    ",
" .++++#++.+@.   ",
" .+++$%$+.....  ",
" .++#%+%#+@@@.@ ",
" .+++$%$+++++.@ ",
" .++++&++++++.@ ",
" .++++%++++++.@ ",
" .+#+%&%*#++=.@ ",
" .$%&-++&%$++.@ ",
" .%+%#+#%+%#+.@ ",
" .$%$+++$%$++.@ ",
" .+#+++++#;++.@ ",
" .............@ ",
"  @@@@@@@@@@@@@ "};
