/* XPM */
static char * page_link_xpm[] = {
"16 16 9 1",
" 	c None",
".	c #000000",
"+	c #FFFFFF",
"@	c #7A7A7A",
"#	c #7F7FFF",
"$	c #0000FF",
"%	c #FAFAFA",
"&	c #FDFFFD",
"*	c #000100",
" .........      ",
" .+++++++..     ",
" .+++++++.@.    ",
" .+++++++.+@.   ",
" .+++++++.....  ",
" .++++++++@@@.@ ",
" .+++++++++++.@ ",
" .+++++++++++.@ ",
" .+++++++++++.@ ",
" .+++++++#$$#.@ ",
" .+++%&+++#$$#@ ",
" .++++######$$# ",
" .+++#$$$$$$$$$ ",
" .++++######$$# ",
" .....*...#$$#@ ",
"  @@@@@@@#$$#@@ "};
