/* XPM */
static char * page_exe_link_xpm[] = {
"16 16 15 1",
" 	c None",
".	c #000000",
"+	c #FFFFFF",
"@	c #7A7A7A",
"#	c #696450",
"$	c #A19870",
"%	c #8D8562",
"&	c #C6B988",
"*	c #D5CB96",
"=	c #D2CA96",
"-	c #928863",
";	c #7F7FFF",
">	c #0000FF",
",	c #D3CB94",
"'	c #000100",
" .........      ",
" .+++++++..     ",
" .+++++++.@.    ",
" .+++++++.+@.   ",
" .+++++++.....  ",
" .+++#$%#+@@@.@ ",
" .++$%&&%$+++.@ ",
" .+#%****%#++.@ ",
" .+%&*&$=&-++.@ ",
" .+$&*$%*;>>;.@ ",
" .+#%*,**%;>>;@ ",
" .++$%;;;;;;>>; ",
" .+++;>>>>>>>>> ",
" .++++;;;;;;>>; ",
" .....'...;>>;@ ",
"  @@@@@@@;>>;@@ "};
