/* XPM */
static char * page_html_xpm[] = {
"16 16 12 1",
" 	c None",
".	c #000000",
"+	c #FFFFFF",
"x	c #0077C1",
"y	c #21BDD4",
"z	c #7E518E",
"/	c #B72847",
":	c #329BCD",
"<	c #450606",
"[	c #F6B7B7",
"3	c #E21414",
"i	c #808080",
"                ",
"  ........      ",
"  .+++++.i.     ",
"  .++++x.+i.    ",
"  .+++xx.++i.   ",
"  .++xxx.....   ",
"  .+xx/xxxxx.z  ",
"  .xx/3/xxxxxz  ",
" x<x/3/3/xxxxxx ",
" 3333/x/3/x/33x ",
"  <x/xxx/3/3xxx ",
"  .+xxxxx/3/xz  ",
"  .++xxxxx/x.z  ",
"  ....xxxxxx.   ",
"   iiixxxxxxi   ",
"       xxxx     "};
