/* XPM */
static char * page_tar_xpm[] = {
"16 16 10 1",
" 	c None",
".	c #000000",
"+	c #FFFFFF",
"@	c #7A7A7A",
"#	c #7777FF",
"$	c #4747FF",
"%	c #0000FF",
"&	c #9898FF",
"*	c #FEFEFE",
"=	c #F9F9F9",
" .........      ",
" .+++++++..     ",
" .+++++++.@.    ",
" .+++++++.+@.   ",
" .+++++++.....  ",
" .+#++++++@@@.@ ",
" .+$#+++++#$+.@ ",
" .+%$#+++#$%+.@ ",
" .+%%$&+&$%%+.@ ",
" .+%%%$#$%%%*.@ ",
" .+%%$&+&$%%+.@ ",
" .+%$#+++#$%+.@ ",
" .+$#+++++#$+.@ ",
" .+#++++++=#+.@ ",
" .............@ ",
"  @@@@@@@@@@@@@ "};
