/* XPM */
static char * page_core_xpm[] = {
"16 16 14 1",
" 	c None",
".	c #000000",
"+	c #FFFFFF",
"@	c #FAFAFA",
"#	c #FEFEFE",
"$	c #7A7A7A",
"%	c #DBB600",
"&	c #565656",
"*	c #FDFDFD",
"=	c #F6F6F6",
"-	c #F8F8F8",
";	c #FF0000",
">	c #FF5454",
",	c #F9F9F9",
" .........      ",
" .+++++++..     ",
" .++@##++.$.    ",
" .%.&&&*+.+$.   ",
" .%&%+=&-.....  ",
" .%%%+.&.+$$$.$ ",
" .+++;...;+++.$ ",
" .++;;>;;;;++.$ ",
" .++;>>>;;;++.$ ",
" .++;;>>;;;+#.$ ",
" .++;;;;;;;++.$ ",
" .++;;;;;;;++.$ ",
" .+++;;;;;+++.$ ",
" .++++++++,++.$ ",
" .............$ ",
"  $$$$$$$$$$$$$ "};
