/* XPM */
static char * tar_xpm[] = {
"16 16 6 1",
" 	s None	c None",
".	c black",
"X	c white",
"o	c #808080",
"r	c #0000ff",
"e	c #000088",
"                ",
"  ........      ",
"  .XXXXX.o.     ",
"  .XXXXX.Xo.    ",
"  .XXXXX.XXo.   ",
"  .XXXXX.....o  ",
"  .eXXXXXXXe.o  ",
"  .reXXXXXer.o  ",
"  .rreXXXerr.o  ",
"  .rrreXerrr.o  ",
"  .rreXXXerr.o  ",
"  .reXXXXXer.o  ",
"  .eXXXXXXXe.o  ",
"  ...........o  ",
"   ooooooooooo  ",
"                "};
