/* XPM */
static char *Linea[] = {
/* width height num_colors chars_per_pixel */
"    64    64        2            1",
/* colors */
". c #004d9e",
"# c #00499e",
/* pixels */
"...#.#........#.#..#.#.#...#......#......#..#....##.#......#....",
"#..............#.#..#..#...#..........#..#...#..#.#.#.#....#..#.",
"#.#....#........#.#...#.....#......#.#..#...#...#..#...#..#.#..#",
"#.........#...#.#....#.#...........#....##.#...#.#.#...#......#.",
".........#.#..#.#..#..#....#.......#...#..#...#.....#...........",
"....#...#.#.#.....#....#....#....#.........#..#..#..#.#.......#.",
"..#.##......#.#.#..........#..#........#...#.....#..#.........#.",
"#..#..##..#.#...#.#.....#..#.#.#.......#....#..#..#.........#..#",
".#..#.#.#.#.......#.....#.#..#..#..#...#....#.#.#.#...#.##..#.#.",
".#..#.#...........#.....#.#..#.#.#..#..#....#..#........#....#..",
"#....#...#.....#.......##.#.#.......#..#.....#..#....#..#.......",
".#...#.#.....#..#...#.....#.#...#..#...#.#..#.#..#.........#..#.",
"......#.#....#...#.........#..#..#.#....#...#........#....#.#.#.",
"...#.#.#..#.#.#..#....#....#...#.#.#....#...#....#.....#..#..#.#",
".#.#..........#..#.#......#.#..#.#....#......#.#....#.#.........",
"...#..#.#.#...#...#..#....#.#.#.##.......#.........#....#..#....",
"#.#.#...#.#..#........#..#..#.#.#........#.........#...#...#.#..",
"...##..#.#..#.#....#.....#...#.#..#......#.............#...#.#..",
"..#.#..#....#.#.....#....#.#..#..#............#..........#.#.#..",
"#.#.#.....#.#.#.#...#....#.#..#.#......#.....#...........#.##...",
"#..#..#......#..#...#......#....#.#...#...#....#........#.#..#..",
"...#....#...........#.#....#....#..#.........#...#......#...#..#",
"...#..............#........#.##....#..#...#...#...#.#...#.#..#..",
"...#......#......#.#.#.#.....#....#.#.#.....#...#.#.#...#.#.#...",
"..#.......#......#.#.#......#......#..#.........#...#.#.#.#.#...",
"..#.......#....#...##...#.#.#.#........#.....#..#..#..#.....#.#.",
"..#....#.#...#..#.........#.#..#.........#...#.............#....",
"...#.#...#..#......#..........#.......#...........#..#...#.#...#",
"...#..##.#...#.#.#...#....#..#.#....#....#.#.#.#....#.....##..#.",
".#......#.#..#.#......#...#....##..#....#.....#....#.#.#..#.#..#",
".#.#.....#...#.......#...#..#....#.#...#....#.....#.#..#..#.#...",
"..#.#..#...#...##.#.#...#.#.#.#..#..#...#....#.#...#...#...#.##.",
"....#.#....#.#.#...#...........#.##.....#..#..#.#.......#..##...",
"..#...#.....#.#....#.....#.#....#.#....#....#...#.#...#.#.#.#..#",
"....#.......#.#...#....#...#...#...#........#..#....#.#..#.#...#",
".#..#....#...#..#.#....#...#..#..#.........#..#.#.....#.#.#.#.#.",
"...#..#.#..#......#....#..#..#.........#..#..#.#.#......#...#.#.",
"#...##.#....#....#.....#.#...##.........#....#.#.#......#..#.#..",
".....#.#...#.#.#.#..#...#......#.#..#........#..#.#....#....#...",
"....#.#....#.#..##.#....#....#.#..#...#..#..#.##.#.#...#....#...",
"#....#.....#....#..#.#.#..#.##.#.#..#...#..#.#..#.#...#.#......#",
"#.#..#.....#.....#...##.#.#.##......#.....#.#..#.#.....#....#...",
"...#..#..#.#.#..#......#.#.#.........#..#.##.#..#.#..#.##...#.#.",
"#.#........#.#.....#...#....#.#...#.....#..#....#.#...#..#...#..",
"..#.#...##..#.....#........#.#..#..#...#.......#.#..#.#..#......",
"#.#.#.#.#.#......#.#................#..##......#..#.#.#...#..#.#",
".#.#..#....#..#.....#............#...#..#....#.....#.#.#....#..#",
"....#.#...#...#..#.#..#.#.#.....#......##...#......#.#..#..##.#.",
".##.......#.#..#...#....#.#...#......#...#....#........##.#.#..#",
"#...#..#.....#.#..#..#....#....#...#...#..#..#........##.#....#.",
"#..#...#......#..#..#............#.#.#....#.#.....#.....#.....#.",
".#.#.#..#..#.....#.#..#.#.......#.#...#...#.#.#...#....#.......#",
".#.....#.#.##..#...#..#......#....#....#.#.#..#......##......#.#",
"...#......#.....#...#.#............#..#.#..#..#.#...#.....#.#.#.",
"#.#.#...#...#..#..#......#.#.#..#......#.#.#....#...#.#...#..#.#",
"#..#.#.#..##.#..#.#.......#...#.#.#...#..#......#...#.....#.#.#.",
".#.#.#....#.#....#.##..#.#.#.....#.#.....#...#..#.......#..#..#.",
".#.#........#.#..#......#.#.#..#...#.........#..#..........#..#.",
".#.#.#..#.#.....#.........#..##..#..#.......#....#....#...#....#",
"..#.#..#..#....................#.....#.......#...#.#....#......#",
".....#..#......#.......#....#.#..#..........#.........#.#.......",
".#..#.#....#.#..#....#.#....#.......#.....#....#....#.#.#......#",
"...#.#........#.#..#.#.#...#......#......#..#....##.#......#....",
"#..............#.#..#..#...#..........#..#...#..#.#.#.#....#..#."
};
