#define close_width 16
#define close_height 16
static unsigned char close_bits[] = {
  0xff, 0xff, 0xff, 0xff, 0xff, 0xff, 0xff, 0xff, 0xcf, 0xf3, 0x8f, 0xf1,
  0x1f, 0xf8, 0x3f, 0xfc, 0x3f, 0xfc, 0x1f, 0xf8, 0x8f, 0xf1, 0xcf, 0xf3,
  0xff, 0xff, 0xff, 0xff, 0xff, 0xff, 0xff, 0xff, };
