#define maximize_pressed_width 16
#define maximize_pressed_height 16
static unsigned char maximize_pressed_bits[] = {
  0xff, 0xff, 0xff, 0xff, 0xff, 0xff, 0x07, 0xfc, 0x07, 0xfc, 0xf7, 0xe1,
  0xf7, 0xe1, 0xf7, 0xed, 0xf7, 0xed, 0xf7, 0xed, 0x07, 0xec, 0xbf, 0xef,
  0x3f, 0xe0, 0xff, 0xff, 0xff, 0xff, 0xff, 0xff, };
