#define maximize_width 16
#define maximize_height 16
static unsigned char maximize_bits[] = {
  0xff, 0xff, 0xff, 0xff, 0xff, 0xff, 0x07, 0xe0, 0x07, 0xe0, 0xf7, 0xef,
  0xf7, 0xef, 0xf7, 0xef, 0xf7, 0xef, 0xf7, 0xef, 0xf7, 0xef, 0xf7, 0xef,
  0x07, 0xe0, 0xff, 0xff, 0xff, 0xff, 0xff, 0xff, };
